<svg width="192" height="30" viewBox="0 0 192 30" fill="none" xmlns="http://www.w3.org/2000/svg">
<path d="M20.9503 23.6962C21.3463 23.6962 21.6764 23.8348 21.9404 24.112C22.2044 24.3892 22.3364 24.7259 22.3364 25.1219V28.013C22.3364 28.3826 22.2044 28.706 21.9404 28.9832C21.6764 29.2605 21.3463 29.3991 20.9503 29.3991H1.38613C1.01649 29.3991 0.693063 29.2605 0.415838 28.9832C0.138613 28.706 0 28.3826 0 28.013V25.1219C0 24.7259 0.138613 24.3892 0.415838 24.112C0.693063 23.8348 1.01649 23.6962 1.38613 23.6962H20.9503ZM1.38613 17.5576C1.01649 17.5576 0.693063 17.419 0.415838 17.1418C0.138613 16.8645 0 16.5411 0 16.1715V13.2012C0 12.8316 0.138613 12.5081 0.415838 12.2309C0.693063 11.9537 1.01649 11.8151 1.38613 11.8151H19.1681C19.5642 11.8151 19.9008 11.9537 20.178 12.2309C20.4553 12.5081 20.5939 12.8316 20.5939 13.2012V16.1715C20.5939 16.5411 20.4553 16.8645 20.178 17.1418C19.9008 17.419 19.5642 17.5576 19.1681 17.5576H1.38613V17.5576ZM20.9503 0.0132012C21.3463 0.0132012 21.6764 0.151814 21.9404 0.429039C22.2044 0.706264 22.3364 1.02969 22.3364 1.39933V4.29039C22.3364 4.68643 22.2044 5.02306 21.9404 5.30028C21.6764 5.57751 21.3463 5.71612 20.9503 5.71612H1.38613C1.01649 5.71612 0.693063 5.57751 0.415838 5.30028C0.138613 5.02306 0 4.68643 0 4.29039V1.39933C0 1.02969 0.138613 0.706264 0.415838 0.429039C0.693063 0.151814 1.01649 0.0132012 1.38613 0.0132012H20.9503ZM45.2194 5.67652C44.8762 5.62371 44.5923 5.4653 44.3679 5.20127C44.1435 4.93725 44.0313 4.63362 44.0313 4.29039V1.39933C44.0313 0.950486 44.1897 0.594054 44.5065 0.33003C44.8234 0.0660057 45.193 -0.0396036 45.6154 0.0132012C47.886 0.382835 49.9058 1.18811 51.6748 2.42902C53.9718 4.09237 55.5955 6.29697 56.546 9.04283C56.7044 9.49167 56.6516 9.9141 56.3876 10.3101C56.1236 10.7062 55.7408 10.9042 55.2391 10.9042H52.0708C51.7804 10.9042 51.5164 10.8316 51.2788 10.6864C51.0411 10.5412 50.8695 10.3365 50.7639 10.0725C50.1831 8.69959 49.2986 7.60389 48.1105 6.78542C47.1864 6.20457 46.2227 5.83493 45.2194 5.67652V5.67652ZM55.2391 18.8249C55.7408 18.8249 56.1236 19.0229 56.3876 19.419C56.6516 19.815 56.7044 20.2374 56.546 20.6863C55.5955 23.4321 53.9718 25.6367 51.6748 27.3001C49.9058 28.541 47.886 29.3463 45.6154 29.7159H45.4174C45.0478 29.7159 44.7442 29.5971 44.5065 29.3595C44.1897 29.1219 44.0313 28.7786 44.0313 28.3298V25.4387C44.0313 25.0955 44.1369 24.7919 44.3481 24.5278C44.5593 24.2638 44.8366 24.1054 45.1798 24.0526C46.2887 23.8942 47.2656 23.5245 48.1105 22.9437C49.2986 22.1252 50.1831 21.0295 50.7639 19.6566C50.8695 19.3926 51.0411 19.1879 51.2788 19.0427C51.5164 18.8975 51.7804 18.8249 52.0708 18.8249H55.2391V18.8249ZM41.061 0.488444C41.4043 0.752468 41.5759 1.1089 41.5759 1.55774V4.64682C41.5759 4.93725 41.4769 5.20787 41.2788 5.4587C41.0808 5.70952 40.8366 5.88774 40.5462 5.99335C40.1765 6.07255 39.8861 6.16496 39.6749 6.27057C38.6188 6.74581 37.7211 7.39267 36.9818 8.21115C35.4769 9.9009 34.7244 12.1121 34.7244 14.8448C34.7244 17.5774 35.4769 19.8018 36.9818 21.518C37.9059 22.5741 39.094 23.3133 40.5462 23.7358C40.8366 23.815 41.0808 23.98 41.2788 24.2308C41.4769 24.4816 41.5759 24.7523 41.5759 25.0427V28.1714C41.5759 28.6202 41.4043 28.9766 41.061 29.2407C40.8234 29.4519 40.5198 29.5575 40.1501 29.5575H39.8729C37.0479 28.9502 34.6584 27.5773 32.7047 25.4387C30.1964 22.6137 28.9423 19.0889 28.9423 14.8646C28.9423 10.6402 30.1964 7.11545 32.7047 4.29039C34.6584 2.12539 37.0479 0.76567 39.8729 0.211219C40.2954 0.105609 40.6914 0.198018 41.061 0.488444V0.488444ZM76.0627 0.33003C76.3795 0.594054 76.5379 0.950486 76.5379 1.39933V4.3696C76.5379 4.71283 76.4389 5.00986 76.2409 5.26068C76.0429 5.5115 75.7723 5.67652 75.429 5.75572C73.7393 6.09896 72.3004 6.90423 71.1122 8.17154C69.5017 9.8613 68.6964 12.0593 68.6964 14.7655C68.6964 17.4718 69.5017 19.683 71.1122 21.3992C72.3004 22.6401 73.7393 23.4321 75.429 23.7754C75.7723 23.8546 76.0429 24.0196 76.2409 24.2704C76.4389 24.5212 76.5379 24.8183 76.5379 25.1615V28.1318C76.5379 28.5542 76.3795 28.9106 76.0627 29.2011C75.7723 29.4123 75.4686 29.5179 75.1518 29.5179H74.9142C71.8515 29.0162 69.2245 27.6301 67.0331 25.3595C64.2872 22.5345 62.9143 19.0163 62.9143 14.8052C62.9143 10.594 64.2872 7.04944 67.0331 4.17158C69.1717 1.95378 71.7987 0.580853 74.9142 0.0528048C75.3366 -0.0264024 75.7195 0.0660057 76.0627 0.33003V0.33003ZM88.4982 4.17158C91.2441 7.04944 92.617 10.594 92.617 14.8052C92.617 19.0163 91.2441 22.5345 88.4982 25.3595C86.3068 27.6301 83.6798 29.0162 80.6171 29.5179H80.3795C80.0627 29.5179 79.759 29.4123 79.4686 29.2011C79.1518 28.9106 78.9934 28.5542 78.9934 28.1318V25.1615C78.9934 24.8183 79.0924 24.5212 79.2904 24.2704C79.4884 24.0196 79.759 23.8546 80.1023 23.7754C81.792 23.4321 83.2309 22.6401 84.4191 21.3992C86.0296 19.683 86.8349 17.4718 86.8349 14.7655C86.8349 12.0593 86.0296 9.8613 84.4191 8.17154C83.2309 6.90423 81.792 6.09896 80.1023 5.75572C79.759 5.67652 79.4884 5.5115 79.2904 5.26068C79.0924 5.00986 78.9934 4.71283 78.9934 4.3696V1.39933C78.9934 0.950486 79.1584 0.594054 79.4884 0.33003C79.8184 0.0660057 80.1947 -0.0264024 80.6171 0.0528048C83.7326 0.580853 86.3596 1.95378 88.4982 4.17158V4.17158ZM119.658 12.1319C120.054 12.1319 120.391 12.2705 120.668 12.5477C120.945 12.825 121.084 13.1616 121.084 13.5576V16.4883C121.084 16.8579 120.945 17.1814 120.668 17.4586C120.391 17.7358 120.054 17.8744 119.658 17.8744H106.629V28.013C106.629 28.3826 106.497 28.706 106.233 28.9832C105.969 29.2605 105.639 29.3991 105.243 29.3991H102.233C101.863 29.3991 101.54 29.2605 101.262 28.9832C100.985 28.706 100.847 28.3826 100.847 28.013V13.5576C100.847 13.1616 100.985 12.825 101.262 12.5477C101.54 12.2705 101.863 12.1319 102.233 12.1319H119.658V12.1319ZM121.441 0.0132012C121.81 0.0132012 122.134 0.151814 122.411 0.429039C122.688 0.706264 122.827 1.02969 122.827 1.39933V4.29039C122.827 4.68643 122.688 5.02306 122.411 5.30028C122.134 5.57751 121.81 5.71612 121.441 5.71612H102.233C101.863 5.71612 101.54 5.57751 101.262 5.30028C100.985 5.02306 100.847 4.68643 100.847 4.29039V1.39933C100.847 1.02969 100.985 0.706264 101.262 0.429039C101.54 0.151814 101.863 0.0132012 102.233 0.0132012H121.441ZM140.68 23.8942C140.997 23.9998 141.248 24.178 141.432 24.4288C141.617 24.6797 141.71 24.9635 141.71 25.2803V28.3298C141.71 28.7522 141.538 29.1087 141.195 29.3991C140.931 29.6103 140.64 29.7159 140.324 29.7159C140.191 29.7159 140.099 29.7027 140.046 29.6763C137.591 29.2011 135.479 28.0658 133.71 26.2704C131.333 23.8414 130.145 20.6467 130.145 16.6863V1.43893C130.145 1.04289 130.284 0.706264 130.561 0.429039C130.838 0.151814 131.162 0.0132012 131.532 0.0132012H134.581C134.977 0.0132012 135.314 0.151814 135.591 0.429039C135.868 0.706264 136.007 1.04289 136.007 1.43893V16.7655C136.007 19.2738 136.72 21.1879 138.145 22.5081C138.885 23.1945 139.729 23.6566 140.68 23.8942V23.8942ZM154.343 0.0132012C154.739 0.0132012 155.076 0.151814 155.353 0.429039C155.63 0.706264 155.769 1.04289 155.769 1.43893V16.6863C155.769 20.6467 154.581 23.8414 152.205 26.2704C150.436 28.0658 148.323 29.2011 145.868 29.6763C145.815 29.7027 145.723 29.7159 145.591 29.7159C145.274 29.7159 144.984 29.6103 144.72 29.3991C144.376 29.1351 144.205 28.7654 144.205 28.2902V25.2407C144.205 24.9503 144.297 24.6797 144.482 24.4288C144.667 24.178 144.918 23.9998 145.234 23.8942C146.238 23.6038 147.083 23.1417 147.769 22.5081C149.195 21.2407 149.908 19.3266 149.908 16.7655V1.43893C149.908 1.04289 150.046 0.706264 150.323 0.429039C150.601 0.151814 150.937 0.0132012 151.333 0.0132012H154.343V0.0132012ZM183.048 1.0429C184.658 1.65015 186.111 2.62704 187.404 3.97356C190.177 6.77222 191.563 10.3431 191.563 14.6863C191.563 19.0295 190.177 22.6137 187.404 25.4387C186.111 26.7852 184.658 27.7621 183.048 28.3694C181.385 29.0558 179.682 29.3991 177.939 29.3991H166.731C166.362 29.3991 166.038 29.2605 165.761 28.9832C165.484 28.706 165.345 28.3826 165.345 28.013V25.1615C165.345 24.7655 165.484 24.4288 165.761 24.1516C166.038 23.8744 166.362 23.7358 166.731 23.7358H177.82C180.17 23.7358 182.078 22.8777 183.543 21.1615C185.008 19.4454 185.741 17.2936 185.741 14.7061C185.741 12.1187 185.008 9.96691 183.543 8.25075C182.078 6.5346 180.17 5.67652 177.82 5.67652H166.731C166.362 5.67652 166.038 5.5379 165.761 5.26068C165.484 4.98345 165.345 4.64682 165.345 4.25079V1.39933C165.345 1.02969 165.484 0.706264 165.761 0.429039C166.038 0.151814 166.362 0.0132012 166.731 0.0132012H177.939C179.682 0.0132012 181.385 0.356432 183.048 1.0429V1.0429Z" fill="#22E06A"/>
</svg>
